<?xml version="1.0" encoding="utf-8"?>
<!-- Generator: Adobe Illustrator 23.0.1, SVG Export Plug-In . SVG Version: 6.00 Build 0)  -->
<svg version="1.1" id="Layer_1" xmlns="http://www.w3.org/2000/svg" xmlns:xlink="http://www.w3.org/1999/xlink" x="0px" y="0px"
	 viewBox="0 0 24 24" style="enable-background:new 0 0 24 24;" xml:space="preserve">
<style type="text/css">
	.st0{fill:none;}
	.st1{fill:#FFFFFF;}
</style>
<path class="st0" d="M0,0h24v24H0V0z"/>
<path class="st1" d="M13.5,5.5c1.1,0,2-0.9,2-2s-0.9-2-2-2s-2,0.9-2,2S12.4,5.5,13.5,5.5z M9.9,19.4l1-4.4l2.1,2v6h2v-7.5l-2.1-2
	l0.6-3C14.8,12,16.8,13,19,13v-2c-1.9,0-3.5-1-4.3-2.4l-1-1.6c-0.4-0.6-1-1-1.7-1c-0.3,0-0.5,0.1-0.8,0.1L6,8.3V13h2V9.6l1.8-0.7
	L8.2,17l-4.9-1l-0.4,2L9.9,19.4z"/>
</svg>
